# xmcd CD database file
#
# Track frame offsets:
#	180
#	15992
#	39017
#	60491
#	77354
#	98061
#	121072
#	141558
#	162038
#	183402
#	206268
#	225763
#	247587
#	265832
#
# Disc length: 3756 seconds
#
# Revision: 0
# Processed by: cddbd v1.5.2PL0 Copyright (c) Steve Scherf et al.
# Submitted via: CDex 1.50Beta7
#
DISCID=920eaa0e
DTITLE=Various Artist - Salsa and salsa
DYEAR=1998
DGENRE=Salsa
TTITLE0=lejos de ti
TTITLE1=londres
TTITLE2=tantos deseos de ella
TTITLE3=a san lazaro (babalu)
TTITLE4=perdoname
TTITLE5=lloraras
TTITLE6=por fuera y por dentro
TTITLE7=margoth
TTITLE8=para tenerte otra vez
TTITLE9=nostalgia
TTITLE10=fue candela
TTITLE11=amor callejero
TTITLE12=el hospital del amor
TTITLE13=el dulcerito
EXTD=YEAR: 1998
EXTT0=
EXTT1=
EXTT2=
EXTT3=
EXTT4=
EXTT5=
EXTT6=
EXTT7=
EXTT8=
EXTT9=
EXTT10=
EXTT11=
EXTT12=
EXTT13=
PLAYORDER=
